# xmcd
#
# Track frame offsets:
# 150
# 15421
# 39017
# 54420
# 70560
# 89704
# 104788
# 122031
# 139667
# 155998
#
# Disc length: 2430 seconds
#
# Revision: 1
# Processed by: cddbd v1.5.2PL0 Copyright (c) Steve Scherf et al.
# Submitted via: CedeCatalogueitor 2.6.0.6 http://personales.ya.com/cdcatalogueitor
#
DISCID=83097c0a
DTITLE=Kidda - Going Up
DYEAR=1900
DGENRE=
TTITLE0=Strong
TTITLE1=Together
TTITLE2=Vip
TTITLE3=Feel To Good
TTITLE4=Hey Y'all
TTITLE5=Good
TTITLE6=Shining I 
TTITLE7=Doo Whot
TTITLE8=Waiting For Light
TTITLE9=Smile
EXTD=
EXTT0=
EXTT1=
EXTT2=
EXTT3=
EXTT4=
EXTT5=
EXTT6=
EXTT7=
EXTT8=
EXTT9=
PLAYORDER=
